<svg width="1600" height="1200" viewBox="0 0 1600 1200" fill="none" xmlns="http://www.w3.org/2000/svg">
<g filter="url(#filter0_f)">
<path d="M58.6587 -240.471H1542L1276.43 797.529L452.521 965.84L58.6587 -240.471Z" fill="url(#paint0_linear)"/>
</g>
<g filter="url(#filter1_f)">
<ellipse cx="808.219" cy="719.493" rx="431.326" ry="419.053" fill="url(#paint1_linear)"/>
</g>
<g opacity="0.4" filter="url(#filter2_f)">
<ellipse cx="808.22" cy="719.493" rx="395.382" ry="383.986" fill="url(#paint2_linear)"/>
</g>
<g opacity="0.3" filter="url(#filter3_f)">
<path d="M712.588 -29.3364C683.658 330.54 835.762 576.449 868.637 231.037C1089.12 345.444 1022.57 686.791 1189.94 553.752C1126.78 1126.86 409.841 1081.72 200.357 717.343C189.339 702.771 183.684 685.87 178.285 673.396C184.829 688.516 192.209 703.171 200.357 717.343C211.21 731.697 227.267 743.79 253.41 747.167C319.263 755.672 192.286 461.892 276.288 401.219C440.489 569.874 440.489 135.041 712.588 -29.3364Z" fill="url(#paint3_linear)"/>
</g>
<g filter="url(#filter4_f)">
<path d="M917.654 78.6406C1058.54 123.789 1061.61 490.566 1141.75 297.832C1196.19 456.122 1090.98 701.881 1232.53 576.754C1206.71 837.327 1032.67 929.021 1129.12 909.472C962.973 1081.69 705.645 1091.93 598.681 955.086C619.439 955.086 621.476 953.69 621.476 929.021C455.529 894.463 375.167 772.479 376.921 689.282C385.985 712.57 395.901 752.266 440.458 758.666C496.154 766.665 388.762 490.357 459.807 433.293C529.01 696.761 488.68 349.534 653.948 256.909C689.018 490.543 950.698 286.698 917.654 78.6406Z" fill="url(#paint4_linear)"/>
</g>
<g opacity="0.1" filter="url(#filter5_f)">
<path d="M714.468 -270C855.777 -224.954 874.721 211.052 955.107 18.7564C1117.88 178.79 1063.15 407.151 1205.13 282.308C1494.99 1213.34 -138.367 1263.21 271.11 153.909C340.521 416.778 300.069 70.3407 465.835 -22.0734C433.265 224.868 753.586 104.938 714.468 -270Z" fill="url(#paint5_linear)"/>
</g>
<g opacity="0.2" filter="url(#filter6_f)">
<path d="M490.442 118.019C447.855 345.141 679.776 251.559 665.201 -89.8713C799.046 5.8518 864.254 174.66 930.565 238.507C970.671 277.123 1106.4 238.179 1053.71 93.7443C1190.61 233.844 1098.53 439.405 1232.35 319.744C1245.67 1197.25 107.382 1139.28 306.652 286.49C354.432 524.247 337.111 208.937 490.442 118.019Z" fill="url(#paint6_radial)"/>
</g>
<g filter="url(#filter7_f)">
<path d="M714.946 134.551C816.342 165.156 887.936 386.086 945.617 255.437C1062.41 364.167 1025.94 574.206 1127.82 489.386C1335.81 1121.95 163.799 1155.83 457.617 402.15C502.336 742.115 497.079 367.132 616.023 304.344C633.003 489.386 816.084 319.847 714.946 134.551Z" fill="url(#paint7_linear)"/>
</g>
<g opacity="0.6" filter="url(#filter8_f)">
<ellipse cx="811.655" cy="947.344" rx="270.193" ry="47.9851" fill="url(#paint8_linear)"/>
</g>
<g filter="url(#filter9_i)">
<path d="M784.255 404.874C783.339 438.208 751.516 463.483 735.719 471.954C783.339 486.072 877.984 505.838 875.603 471.954C872.627 429.6 860.035 376.943 822.947 333.673C791.955 297.517 725.188 287.427 682.376 318.105C648.126 342.647 647.348 394.724 651.24 417.695L717.633 398.006C704.354 382.438 710.078 348.096 735.719 344.662C761.361 341.228 785.4 363.206 784.255 404.874Z" fill="url(#paint9_radial)"/>
</g>
<g opacity="0.9" filter="url(#filter10_f)">
<path d="M845.383 453.639C846.909 437.995 845.383 396.862 827.067 357.483C841.109 375.875 864.431 420.855 845.383 453.639Z" fill="#E33F08"/>
</g>
<g opacity="0.4" filter="url(#filter11_f)">
<path d="M783.723 411.093C784.016 409.053 784.197 406.979 784.255 404.873C785.4 363.206 761.361 341.227 735.719 344.661C710.078 348.095 704.354 382.437 717.633 398.005L688.826 406.547C686.564 385.996 688.868 353.407 711.68 339.625C744.648 319.707 783.568 340.083 789.292 377.629C791.205 390.181 788.441 401.543 783.723 411.093Z" fill="url(#paint10_linear)"/>
</g>
<g opacity="0.5" filter="url(#filter12_f)">
<path d="M834.28 348.215C843.292 371.613 852.53 403.344 850.42 427.082C846.756 468.291 820.199 445.168 816.536 416.092C816.356 414.666 816.176 413.169 815.987 411.609C812.337 381.362 805.855 327.662 749.685 317.647C690.618 307.116 673.447 367.557 673.447 382.209C673.447 396.861 681.231 398.235 683.749 387.704C683.954 386.848 684.183 385.754 684.452 384.466C687.499 369.893 695.741 330.468 732.972 330.468C773.495 330.468 789.521 359.544 797.534 382.209C804.698 402.473 803.078 435.548 764.857 448.546C754.966 459.676 743.432 467.818 735.719 471.954C783.339 486.073 877.984 505.838 875.603 471.954C872.953 434.243 862.68 388.364 834.28 348.215Z" fill="url(#paint11_linear)"/>
</g>
<g opacity="0.6" filter="url(#filter13_f)">
<path d="M803.716 375.112C795.108 340.129 764.491 327.339 751.975 324.973C842.865 335.504 817.682 458.904 807.15 475.617C796.619 492.33 770.748 495.993 781.509 475.617C792.269 455.241 814.476 418.84 803.716 375.112Z" fill="#E33F08"/>
</g>
<g filter="url(#filter14_d)">
<mask id="mask0" mask-type="alpha" maskUnits="userSpaceOnUse" x="493" y="466" width="650" height="471">
<path d="M931.224 936.707H708.907C674.374 936.707 657.107 936.707 644.046 934.748C545.922 920.028 479.043 827.563 495.782 729.764C498.011 716.745 503.416 700.347 514.227 667.55L514.227 667.549L514.227 667.549C522.842 641.415 527.15 628.348 532.204 616.942C569.048 533.799 647.742 476.88 738.24 467.918C750.656 466.688 764.414 466.688 791.932 466.688H847.672C874.671 466.688 888.17 466.688 900.242 467.85C995.844 477.052 1077.96 539.677 1112.11 629.442C1116.43 640.776 1120 653.795 1127.14 679.832L1127.14 679.834C1135.28 709.533 1139.36 724.382 1140.94 736.281C1153.81 833.009 1086 921.918 989.312 935.087C977.419 936.707 962.02 936.707 931.224 936.707Z" fill="#FF7F0A"/>
</mask>
<g mask="url(#mask0)">
<g filter="url(#filter15_i)">
<path d="M931.224 936.707H708.907C674.374 936.707 657.107 936.707 644.046 934.748C545.922 920.028 479.043 827.563 495.782 729.764C498.011 716.745 503.416 700.347 514.227 667.55L514.227 667.549L514.227 667.549C522.842 641.415 527.15 628.348 532.204 616.942C569.048 533.799 647.742 476.88 738.24 467.918C750.656 466.688 764.414 466.688 791.932 466.688H847.672C874.671 466.688 888.17 466.688 900.242 467.85C995.844 477.052 1077.96 539.677 1112.11 629.442C1116.43 640.776 1120 653.795 1127.14 679.832L1127.14 679.834C1135.28 709.533 1139.36 724.382 1140.94 736.281C1153.81 833.009 1086 921.918 989.312 935.087C977.419 936.707 962.02 936.707 931.224 936.707Z" fill="url(#paint12_radial)"/>
</g>
<g filter="url(#filter16_ddi)">
<path d="M651.239 565.142C624.072 634.234 607.121 715.755 626.403 809.881C635.961 856.541 640.741 879.872 668.301 905.437C671.196 908.123 676.611 912.541 679.824 914.839C710.4 936.707 742.937 936.707 811.141 936.707C876.216 936.707 913.056 936.707 943.632 914.839C946.844 912.541 952.259 908.123 955.155 905.437C982.715 879.872 987.494 856.541 997.053 809.881C1016.33 715.755 999.383 634.234 972.216 565.142C966.564 550.765 963.737 543.577 956.714 532.415C938.15 502.913 898.093 475.621 863.844 469.14C850.887 466.688 834.77 466.688 811.141 466.688C784.383 466.688 772.568 466.688 759.611 469.14C725.362 475.621 685.305 502.913 666.741 532.415C659.718 543.577 656.892 550.765 651.239 565.142Z" fill="url(#paint13_radial)"/>
</g>
<g filter="url(#filter17_f)">
<ellipse cx="801.091" cy="570.874" rx="223.046" ry="80.4116" transform="rotate(1.0527 801.091 570.874)" fill="url(#paint14_linear)"/>
</g>
<g filter="url(#filter18_f)">
<ellipse cx="743.805" cy="592.953" rx="120.19" ry="41.6675" transform="rotate(-71.0877 743.805 592.953)" fill="url(#paint15_linear)"/>
</g>
<g opacity="0.8" filter="url(#filter19_f)">
<path d="M684.86 930.619C508.496 898.016 506.963 742.034 508.496 674.568L428.707 728.461L447.562 940.2L684.86 1032.18C745.181 1016.21 833.343 958.067 684.86 930.619Z" fill="#FFE600"/>
</g>
<g opacity="0.5" filter="url(#filter20_f)">
<path d="M1106.84 707.537H526.695C521.811 730.736 525.276 796 578.207 871.459C644.372 965.784 952.528 962.121 1051.66 887.256C1130.97 827.365 1121.49 742.489 1106.84 707.537Z" fill="url(#paint16_linear)"/>
</g>
<g filter="url(#filter21_f)">
<path d="M635.531 709.132C634.608 811.486 657.746 872.654 684.866 914.124C593.697 863.465 588.504 689.339 629.472 597.447C662.247 523.932 710.446 489.531 730.45 481.52C709.1 498.956 636.685 581.189 635.531 709.132Z" fill="#EC6830"/>
</g>
<g opacity="0.2" filter="url(#filter22_iif)">
<path d="M1016.53 718.073C1017.51 836.361 938.416 890.843 909.848 938.768C1135.85 938.768 1121.53 702.667 1078.38 596.469C1043.85 511.511 961.863 448.201 839.889 461.014C862.378 481.164 1015.32 570.213 1016.53 718.073Z" fill="#511F0E"/>
</g>
<g filter="url(#filter23_f)">
<path d="M993.786 712.428C994.642 812.639 973.199 872.526 948.067 913.127C1054.43 862.204 1044.85 691.618 1006.88 601.65C976.511 529.675 924.36 497.426 905.823 489.583C925.608 506.654 992.717 587.164 993.786 712.428Z" fill="#67B108" fill-opacity="0.83"/>
</g>
</g>
</g>
<circle cx="685.197" cy="620.922" r="87.8312" fill="url(#paint17_linear)"/>
<path d="M758.511 572.537C745.414 562.037 728.789 555.756 710.697 555.756C668.448 555.756 634.198 590.006 634.198 632.254C634.198 670.314 661.993 701.883 698.392 707.768C694.088 708.417 689.682 708.753 685.197 708.753C636.689 708.753 597.366 669.429 597.366 620.922C597.366 572.414 636.689 533.09 685.197 533.09C715.826 533.09 742.793 548.768 758.511 572.537Z" fill="url(#paint18_linear)"/>
<circle r="87.8312" transform="matrix(-1 0 0 1 937.782 620.923)" fill="url(#paint19_linear)"/>
<path d="M864.468 572.536C877.565 562.036 894.19 555.755 912.283 555.755C954.531 555.755 988.781 590.005 988.781 632.253C988.781 670.313 960.986 701.882 924.587 707.767C928.891 708.416 933.298 708.752 937.782 708.752C986.29 708.752 1025.61 669.428 1025.61 620.921C1025.61 572.413 986.29 533.089 937.782 533.089C907.153 533.089 880.186 548.767 864.468 572.536Z" fill="url(#paint20_linear)"/>
<path d="M790.251 671.16C798.238 655.293 802.231 647.36 808.143 645.888C810.25 645.363 812.454 645.363 814.561 645.888C820.474 647.36 824.467 655.293 832.453 671.16C839.152 684.47 842.502 691.125 840.714 696.393C840.071 698.288 839.008 700.013 837.605 701.439C833.703 705.404 826.253 705.404 811.352 705.404C796.452 705.404 789.001 705.404 785.1 701.439C783.696 700.013 782.633 698.288 781.99 696.393C780.203 691.125 783.552 684.47 790.251 671.16Z" fill="url(#paint21_linear)"/>
<path d="M796.418 681.519C800.465 673.08 802.488 668.861 804.982 667.134C808.902 664.42 814.095 664.42 818.015 667.134C820.509 668.861 822.532 673.08 826.579 681.519C829.777 688.189 831.376 691.524 831.328 694.235C831.251 698.489 828.82 702.35 825.017 704.259C822.594 705.475 818.895 705.475 811.499 705.475C804.102 705.475 800.403 705.475 797.98 704.259C794.177 702.35 791.746 698.489 791.67 694.235C791.621 691.524 793.22 688.189 796.418 681.519Z" fill="url(#paint22_linear)"/>
<path d="M705.956 828.647V758.361H916.583V828.647C935.109 824.515 973.373 804.833 991.566 758.361H1032.2C997.217 884.188 891.171 899.619 811.27 899.619C731.369 899.619 625.323 884.188 590.34 758.361H630.973C649.166 804.833 687.43 824.515 705.956 828.647Z" fill="url(#paint23_linear)"/>
<path d="M705.956 828.533H723.854V758.361H705.956V828.533Z" fill="url(#paint24_linear)"/>
<path d="M898.685 758.361V828.533H916.583V758.361H898.685Z" fill="url(#paint25_linear)"/>
<path d="M994.653 758.361C959.395 877.64 877.592 877.64 811.27 877.64C744.948 877.64 653.299 857.397 627.887 758.361H590.34C625.323 884.188 731.369 899.619 811.27 899.619C891.171 899.619 997.217 884.188 1032.2 758.361H994.653Z" fill="url(#paint26_linear)"/>
<g opacity="0.2" filter="url(#filter24_f)">
<ellipse cx="941.088" cy="622.604" rx="101.122" ry="97.6941" transform="rotate(-113.587 941.088 622.604)" fill="#8EA826"/>
</g>
<defs>
<filter id="filter0_f" x="-116.677" y="-415.807" width="1834.01" height="1556.98" filterUnits="userSpaceOnUse" color-interpolation-filters="sRGB">
<feFlood flood-opacity="0" result="BackgroundImageFix"/>
<feBlend mode="normal" in="SourceGraphic" in2="BackgroundImageFix" result="shape"/>
<feGaussianBlur stdDeviation="87.6679" result="effect1_foregroundBlur"/>
</filter>
<filter id="filter1_f" x="201.557" y="125.105" width="1213.32" height="1188.78" filterUnits="userSpaceOnUse" color-interpolation-filters="sRGB">
<feFlood flood-opacity="0" result="BackgroundImageFix"/>
<feBlend mode="normal" in="SourceGraphic" in2="BackgroundImageFix" result="shape"/>
<feGaussianBlur stdDeviation="87.6679" result="effect1_foregroundBlur"/>
</filter>
<filter id="filter2_f" x="237.501" y="160.172" width="1141.44" height="1118.64" filterUnits="userSpaceOnUse" color-interpolation-filters="sRGB">
<feFlood flood-opacity="0" result="BackgroundImageFix"/>
<feBlend mode="normal" in="SourceGraphic" in2="BackgroundImageFix" result="shape"/>
<feGaussianBlur stdDeviation="87.6679" result="effect1_foregroundBlur"/>
</filter>
<filter id="filter3_f" x="11.7163" y="-195.905" width="1344.79" height="1350.99" filterUnits="userSpaceOnUse" color-interpolation-filters="sRGB">
<feFlood flood-opacity="0" result="BackgroundImageFix"/>
<feBlend mode="normal" in="SourceGraphic" in2="BackgroundImageFix" result="shape"/>
<feGaussianBlur stdDeviation="83.2845" result="effect1_foregroundBlur"/>
</filter>
<filter id="filter4_f" x="306.759" y="8.50628" width="995.908" height="1110.75" filterUnits="userSpaceOnUse" color-interpolation-filters="sRGB">
<feFlood flood-opacity="0" result="BackgroundImageFix"/>
<feBlend mode="normal" in="SourceGraphic" in2="BackgroundImageFix" result="shape"/>
<feGaussianBlur stdDeviation="35.0672" result="effect1_foregroundBlur"/>
</filter>
<filter id="filter5_f" x="137.647" y="-337.181" width="1169.36" height="1387.88" filterUnits="userSpaceOnUse" color-interpolation-filters="sRGB">
<feFlood flood-opacity="0" result="BackgroundImageFix"/>
<feBlend mode="normal" in="SourceGraphic" in2="BackgroundImageFix" result="shape"/>
<feGaussianBlur stdDeviation="33.5906" result="effect1_foregroundBlur"/>
</filter>
<filter id="filter6_f" x="246.321" y="-126.783" width="1023.06" height="1116.13" filterUnits="userSpaceOnUse" color-interpolation-filters="sRGB">
<feFlood flood-opacity="0" result="BackgroundImageFix"/>
<feBlend mode="normal" in="SourceGraphic" in2="BackgroundImageFix" result="shape"/>
<feGaussianBlur stdDeviation="18.4558" result="effect1_foregroundBlur"/>
</filter>
<filter id="filter7_f" x="343.616" y="68.1099" width="875.543" height="964.13" filterUnits="userSpaceOnUse" color-interpolation-filters="sRGB">
<feFlood flood-opacity="0" result="BackgroundImageFix"/>
<feBlend mode="normal" in="SourceGraphic" in2="BackgroundImageFix" result="shape"/>
<feGaussianBlur stdDeviation="33.2204" result="effect1_foregroundBlur"/>
</filter>
<filter id="filter8_f" x="482.51" y="840.406" width="658.29" height="213.875" filterUnits="userSpaceOnUse" color-interpolation-filters="sRGB">
<feFlood flood-opacity="0" result="BackgroundImageFix"/>
<feBlend mode="normal" in="SourceGraphic" in2="BackgroundImageFix" result="shape"/>
<feGaussianBlur stdDeviation="29.4762" result="effect1_foregroundBlur"/>
</filter>
<filter id="filter9_i" x="634.532" y="288.309" width="241.115" height="202.354" filterUnits="userSpaceOnUse" color-interpolation-filters="sRGB">
<feFlood flood-opacity="0" result="BackgroundImageFix"/>
<feBlend mode="normal" in="SourceGraphic" in2="BackgroundImageFix" result="shape"/>
<feColorMatrix in="SourceAlpha" type="matrix" values="0 0 0 0 0 0 0 0 0 0 0 0 0 0 0 0 0 0 127 0" result="hardAlpha"/>
<feOffset dx="-15.1102" dy="-11.6063"/>
<feGaussianBlur stdDeviation="21.0627"/>
<feComposite in2="hardAlpha" operator="arithmetic" k2="-1" k3="1"/>
<feColorMatrix type="matrix" values="0 0 0 0 0.68 0 0 0 0 1 0 0 0 0 0 0 0 0 0.31 0"/>
<feBlend mode="normal" in2="shape" result="effect1_innerShadow"/>
</filter>
<filter id="filter10_f" x="813.789" y="344.205" width="52.0521" height="122.713" filterUnits="userSpaceOnUse" color-interpolation-filters="sRGB">
<feFlood flood-opacity="0" result="BackgroundImageFix"/>
<feBlend mode="normal" in="SourceGraphic" in2="BackgroundImageFix" result="shape"/>
<feGaussianBlur stdDeviation="6.63933" result="effect1_foregroundBlur"/>
</filter>
<filter id="filter11_f" x="667.078" y="310.785" width="143.89" height="121.371" filterUnits="userSpaceOnUse" color-interpolation-filters="sRGB">
<feFlood flood-opacity="0" result="BackgroundImageFix"/>
<feBlend mode="normal" in="SourceGraphic" in2="BackgroundImageFix" result="shape"/>
<feGaussianBlur stdDeviation="10.5314" result="effect1_foregroundBlur"/>
</filter>
<filter id="filter12_f" x="652.384" y="295.36" width="244.326" height="216.366" filterUnits="userSpaceOnUse" color-interpolation-filters="sRGB">
<feFlood flood-opacity="0" result="BackgroundImageFix"/>
<feBlend mode="normal" in="SourceGraphic" in2="BackgroundImageFix" result="shape"/>
<feGaussianBlur stdDeviation="10.5314" result="effect1_foregroundBlur"/>
</filter>
<filter id="filter13_f" x="732.744" y="305.742" width="104.977" height="203.049" filterUnits="userSpaceOnUse" color-interpolation-filters="sRGB">
<feFlood flood-opacity="0" result="BackgroundImageFix"/>
<feBlend mode="normal" in="SourceGraphic" in2="BackgroundImageFix" result="shape"/>
<feGaussianBlur stdDeviation="9.61558" result="effect1_foregroundBlur"/>
</filter>
<filter id="filter14_d" x="426.821" y="402.127" width="782.079" height="602.806" filterUnits="userSpaceOnUse" color-interpolation-filters="sRGB">
<feFlood flood-opacity="0" result="BackgroundImageFix"/>
<feColorMatrix in="SourceAlpha" type="matrix" values="0 0 0 0 0 0 0 0 0 0 0 0 0 0 0 0 0 0 127 0"/>
<feOffset dy="1.83154"/>
<feGaussianBlur stdDeviation="33.1967"/>
<feColorMatrix type="matrix" values="0 0 0 0 1 0 0 0 0 0.54 0 0 0 0 0 0 0 0 0.5 0"/>
<feBlend mode="normal" in2="BackgroundImageFix" result="effect1_dropShadow"/>
<feBlend mode="normal" in="SourceGraphic" in2="effect1_dropShadow" result="shape"/>
</filter>
<filter id="filter15_i" x="451.546" y="429.6" width="690.96" height="507.108" filterUnits="userSpaceOnUse" color-interpolation-filters="sRGB">
<feFlood flood-opacity="0" result="BackgroundImageFix"/>
<feBlend mode="normal" in="SourceGraphic" in2="BackgroundImageFix" result="shape"/>
<feColorMatrix in="SourceAlpha" type="matrix" values="0 0 0 0 0 0 0 0 0 0 0 0 0 0 0 0 0 0 127 0" result="hardAlpha"/>
<feOffset dx="-44.4148" dy="-37.0887"/>
<feGaussianBlur stdDeviation="20.8338"/>
<feComposite in2="hardAlpha" operator="arithmetic" k2="-1" k3="1"/>
<feColorMatrix type="matrix" values="0 0 0 0 0.0588235 0 0 0 0 0.847059 0 0 0 0 0.137255 0 0 0 0.81 0"/>
<feBlend mode="normal" in2="shape" result="effect1_innerShadow"/>
</filter>
<filter id="filter16_ddi" x="527.01" y="428.226" width="480.148" height="536.87" filterUnits="userSpaceOnUse" color-interpolation-filters="sRGB">
<feFlood flood-opacity="0" result="BackgroundImageFix"/>
<feColorMatrix in="SourceAlpha" type="matrix" values="0 0 0 0 0 0 0 0 0 0 0 0 0 0 0 0 0 0 127 0"/>
<feOffset dx="-57.6935" dy="-5.03674"/>
<feGaussianBlur stdDeviation="16.7128"/>
<feColorMatrix type="matrix" values="0 0 0 0 1 0 0 0 0 0.54 0 0 0 0 0 0 0 0 1 0"/>
<feBlend mode="normal" in2="BackgroundImageFix" result="effect1_dropShadow"/>
<feColorMatrix in="SourceAlpha" type="matrix" values="0 0 0 0 0 0 0 0 0 0 0 0 0 0 0 0 0 0 127 0"/>
<feOffset dy="1.83154"/>
<feGaussianBlur stdDeviation="0.91577"/>
<feColorMatrix type="matrix" values="0 0 0 0 0 0 0 0 0 0 0 0 0 0 0 0 0 0 0.25 0"/>
<feBlend mode="normal" in2="effect1_dropShadow" result="effect2_dropShadow"/>
<feBlend mode="normal" in="SourceGraphic" in2="effect2_dropShadow" result="shape"/>
<feColorMatrix in="SourceAlpha" type="matrix" values="0 0 0 0 0 0 0 0 0 0 0 0 0 0 0 0 0 0 127 0" result="hardAlpha"/>
<feOffset dx="-38.4623" dy="-15.1102"/>
<feGaussianBlur stdDeviation="11.6063"/>
<feComposite in2="hardAlpha" operator="arithmetic" k2="-1" k3="1"/>
<feColorMatrix type="matrix" values="0 0 0 0 0.933375 0 0 0 0 0.95 0 0 0 0 0.11875 0 0 0 0.75 0"/>
<feBlend mode="normal" in2="shape" result="effect3_innerShadow"/>
</filter>
<filter id="filter17_f" x="515.671" y="425.444" width="570.84" height="290.86" filterUnits="userSpaceOnUse" color-interpolation-filters="sRGB">
<feFlood flood-opacity="0" result="BackgroundImageFix"/>
<feBlend mode="normal" in="SourceGraphic" in2="BackgroundImageFix" result="shape"/>
<feGaussianBlur stdDeviation="30.467" result="effect1_foregroundBlur"/>
</filter>
<filter id="filter18_f" x="604.497" y="404.812" width="278.616" height="376.281" filterUnits="userSpaceOnUse" color-interpolation-filters="sRGB">
<feFlood flood-opacity="0" result="BackgroundImageFix"/>
<feBlend mode="normal" in="SourceGraphic" in2="BackgroundImageFix" result="shape"/>
<feGaussianBlur stdDeviation="30.467" result="effect1_foregroundBlur"/>
</filter>
<filter id="filter19_f" x="404.897" y="650.758" width="385.302" height="405.228" filterUnits="userSpaceOnUse" color-interpolation-filters="sRGB">
<feFlood flood-opacity="0" result="BackgroundImageFix"/>
<feBlend mode="normal" in="SourceGraphic" in2="BackgroundImageFix" result="shape"/>
<feGaussianBlur stdDeviation="11.905" result="effect1_foregroundBlur"/>
</filter>
<filter id="filter20_f" x="456.412" y="638.854" width="729.018" height="372.714" filterUnits="userSpaceOnUse" color-interpolation-filters="sRGB">
<feFlood flood-opacity="0" result="BackgroundImageFix"/>
<feBlend mode="normal" in="SourceGraphic" in2="BackgroundImageFix" result="shape"/>
<feGaussianBlur stdDeviation="34.3414" result="effect1_foregroundBlur"/>
</filter>
<filter id="filter21_f" x="585.719" y="462.289" width="163.962" height="471.066" filterUnits="userSpaceOnUse" color-interpolation-filters="sRGB">
<feFlood flood-opacity="0" result="BackgroundImageFix"/>
<feBlend mode="normal" in="SourceGraphic" in2="BackgroundImageFix" result="shape"/>
<feGaussianBlur stdDeviation="9.61558" result="effect1_foregroundBlur"/>
</filter>
<filter id="filter22_iif" x="818.368" y="437.842" width="307.241" height="522.447" filterUnits="userSpaceOnUse" color-interpolation-filters="sRGB">
<feFlood flood-opacity="0" result="BackgroundImageFix"/>
<feBlend mode="normal" in="SourceGraphic" in2="BackgroundImageFix" result="shape"/>
<feColorMatrix in="SourceAlpha" type="matrix" values="0 0 0 0 0 0 0 0 0 0 0 0 0 0 0 0 0 0 127 0" result="hardAlpha"/>
<feOffset dy="1.83154"/>
<feGaussianBlur stdDeviation="0.91577"/>
<feComposite in2="hardAlpha" operator="arithmetic" k2="-1" k3="1"/>
<feColorMatrix type="matrix" values="0 0 0 0 0.425 0 0 0 0 0.189267 0 0 0 0 0.0566667 0 0 0 0.5 0"/>
<feBlend mode="normal" in2="shape" result="effect1_innerShadow"/>
<feColorMatrix in="SourceAlpha" type="matrix" values="0 0 0 0 0 0 0 0 0 0 0 0 0 0 0 0 0 0 127 0" result="hardAlpha"/>
<feOffset dx="31.1362" dy="9.61558"/>
<feGaussianBlur stdDeviation="0.91577"/>
<feComposite in2="hardAlpha" operator="arithmetic" k2="-1" k3="1"/>
<feColorMatrix type="matrix" values="0 0 0 0 0 0 0 0 0 0 0 0 0 0 0 0 0 0 0.25 0"/>
<feBlend mode="normal" in2="effect1_innerShadow" result="effect2_innerShadow"/>
<feGaussianBlur stdDeviation="10.7603" result="effect3_foregroundBlur"/>
</filter>
<filter id="filter23_f" x="886.592" y="470.352" width="165.87" height="462.006" filterUnits="userSpaceOnUse" color-interpolation-filters="sRGB">
<feFlood flood-opacity="0" result="BackgroundImageFix"/>
<feBlend mode="normal" in="SourceGraphic" in2="BackgroundImageFix" result="shape"/>
<feGaussianBlur stdDeviation="9.61558" result="effect1_foregroundBlur"/>
</filter>
<filter id="filter24_f" x="775.903" y="455.649" width="330.37" height="333.91" filterUnits="userSpaceOnUse" color-interpolation-filters="sRGB">
<feFlood flood-opacity="0" result="BackgroundImageFix"/>
<feBlend mode="normal" in="SourceGraphic" in2="BackgroundImageFix" result="shape"/>
<feGaussianBlur stdDeviation="17.5949" result="effect1_foregroundBlur"/>
</filter>
<linearGradient id="paint0_linear" x1="1107.84" y1="-151.222" x2="899.152" y2="752.878" gradientUnits="userSpaceOnUse">
<stop stop-color="#B9FF8D" stop-opacity="0"/>
<stop offset="0.50718" stop-color="#46FF85" stop-opacity="0.12"/>
<stop offset="1" stop-color="#FFE600" stop-opacity="0"/>
</linearGradient>
<linearGradient id="paint1_linear" x1="808.219" y1="300.44" x2="808.219" y2="1138.55" gradientUnits="userSpaceOnUse">
<stop stop-color="#50FF76" stop-opacity="0.38"/>
<stop offset="1" stop-color="#50FFA0" stop-opacity="0"/>
</linearGradient>
<linearGradient id="paint2_linear" x1="808.219" y1="335.508" x2="808.219" y2="696.167" gradientUnits="userSpaceOnUse">
<stop stop-color="#FFFACE"/>
<stop offset="1" stop-color="white" stop-opacity="0"/>
</linearGradient>
<linearGradient id="paint3_linear" x1="686.178" y1="67.8027" x2="686.178" y2="1083.45" gradientUnits="userSpaceOnUse">
<stop stop-color="#A6FFEA" stop-opacity="0.95"/>
<stop offset="1" stop-color="#F6EB4E" stop-opacity="0"/>
</linearGradient>
<linearGradient id="paint4_linear" x1="1119" y1="208.389" x2="806.473" y2="1074.95" gradientUnits="userSpaceOnUse">
<stop stop-color="#FFFBA0" stop-opacity="0.15"/>
<stop offset="1" stop-color="#3AFFE7" stop-opacity="0.06"/>
</linearGradient>
<linearGradient id="paint5_linear" x1="273.408" y1="50.6544" x2="884.527" y2="719.495" gradientUnits="userSpaceOnUse">
<stop stop-color="#FDEE67" stop-opacity="0.49"/>
<stop offset="1" stop-color="#44FFE9" stop-opacity="0.29"/>
</linearGradient>
<radialGradient id="paint6_radial" cx="0" cy="0" r="1" gradientUnits="userSpaceOnUse" gradientTransform="translate(882.32 335.282) rotate(178.317) scale(330.431 524.281)">
<stop stop-color="#EDFFA4" stop-opacity="0.3"/>
<stop offset="1" stop-color="#B2FF50" stop-opacity="0.04"/>
</radialGradient>
<linearGradient id="paint7_linear" x1="459.266" y1="331.997" x2="871.827" y2="808.865" gradientUnits="userSpaceOnUse">
<stop stop-color="#FEFFD2" stop-opacity="0.31"/>
<stop offset="1" stop-color="#B2FF50" stop-opacity="0.1"/>
</linearGradient>
<linearGradient id="paint8_linear" x1="811.655" y1="899.359" x2="811.655" y2="995.329" gradientUnits="userSpaceOnUse">
<stop/>
<stop offset="1" stop-color="#151433" stop-opacity="0.87"/>
<stop offset="1" stop-color="#251F27" stop-opacity="0.87"/>
</linearGradient>
<radialGradient id="paint9_radial" cx="0" cy="0" r="1" gradientUnits="userSpaceOnUse" gradientTransform="translate(685.418 292.533) rotate(70.119) scale(216.736 186.562)">
<stop stop-color="#E8F360"/>
<stop offset="0.420971" stop-color="#F7B34E" stop-opacity="0.990923"/>
<stop offset="0.829897" stop-color="#FFA843"/>
<stop offset="1" stop-color="#89F235"/>
</radialGradient>
<linearGradient id="paint10_linear" x1="739.022" y1="331.848" x2="739.022" y2="411.093" gradientUnits="userSpaceOnUse">
<stop stop-color="#9E4722"/>
<stop offset="1" stop-color="#BB391C" stop-opacity="0.87"/>
</linearGradient>
<linearGradient id="paint11_linear" x1="774.547" y1="316.422" x2="774.547" y2="490.663" gradientUnits="userSpaceOnUse">
<stop stop-color="#9E4722"/>
<stop offset="1" stop-color="#BB391C" stop-opacity="0.87"/>
</linearGradient>
<radialGradient id="paint12_radial" cx="0" cy="0" r="1" gradientUnits="userSpaceOnUse" gradientTransform="translate(811.543 533.182) rotate(64.8675) scale(445.241 531.135)">
<stop stop-color="#F1A42F"/>
<stop offset="0.420971" stop-color="#FCDB69" stop-opacity="0.990923"/>
<stop offset="0.829897" stop-color="#F8B147" stop-opacity="0.77"/>
<stop offset="1" stop-color="#EEAF4F"/>
</radialGradient>
<radialGradient id="paint13_radial" cx="0" cy="0" r="1" gradientUnits="userSpaceOnUse" gradientTransform="translate(811.728 533.182) rotate(90.8281) scale(417.585 249.974)">
<stop stop-color="#F38B2C"/>
<stop offset="0.420971" stop-color="#FFA681" stop-opacity="0.990923"/>
<stop offset="0.829897" stop-color="#F79A10" stop-opacity="0.77"/>
</radialGradient>
<linearGradient id="paint14_linear" x1="607.603" y1="524.516" x2="651.965" y2="678.506" gradientUnits="userSpaceOnUse">
<stop stop-color="#FFEB37" stop-opacity="0.71"/>
<stop offset="1" stop-color="#FF7C02" stop-opacity="0.7"/>
</linearGradient>
<linearGradient id="paint15_linear" x1="639.543" y1="568.931" x2="661.777" y2="649.189" gradientUnits="userSpaceOnUse">
<stop stop-color="white"/>
<stop offset="1" stop-color="#FFFFF8" stop-opacity="0.7"/>
</linearGradient>
<linearGradient id="paint16_linear" x1="820.921" y1="707.537" x2="820.921" y2="942.885" gradientUnits="userSpaceOnUse">
<stop stop-color="#F8A120"/>
<stop offset="1" stop-color="#A5BB1C" stop-opacity="0.87"/>
</linearGradient>
<linearGradient id="paint17_linear" x1="685.197" y1="533.09" x2="685.197" y2="708.753" gradientUnits="userSpaceOnUse">
<stop stop-color="#27613E"/>
<stop offset="1" stop-color="#1B213F"/>
</linearGradient>
<linearGradient id="paint18_linear" x1="717.404" y1="548.65" x2="692.908" y2="719.899" gradientUnits="userSpaceOnUse">
<stop stop-color="#AF6E31"/>
<stop offset="0.558371" stop-color="#E45314" stop-opacity="0.990923"/>
<stop offset="1" stop-color="#FFC700"/>
</linearGradient>
<linearGradient id="paint19_linear" x1="87.8312" y1="0" x2="87.8312" y2="175.662" gradientUnits="userSpaceOnUse">
<stop stop-color="#27613E"/>
<stop offset="1" stop-color="#1B213F"/>
</linearGradient>
<linearGradient id="paint20_linear" x1="984.507" y1="548.649" x2="960.01" y2="719.898" gradientUnits="userSpaceOnUse">
<stop stop-color="#9C500A"/>
<stop offset="0.558371" stop-color="#E45314" stop-opacity="0.990923"/>
<stop offset="1" stop-color="#FFC700"/>
</linearGradient>
<linearGradient id="paint21_linear" x1="816.45" y1="673.192" x2="824.053" y2="723.9" gradientUnits="userSpaceOnUse">
<stop stop-color="#9C500A"/>
<stop offset="1" stop-color="#FF2E00"/>
</linearGradient>
<linearGradient id="paint22_linear" x1="811.499" y1="650.071" x2="811.499" y2="705.475" gradientUnits="userSpaceOnUse">
<stop stop-color="#1D2B3F"/>
<stop offset="1" stop-color="#1A4A33"/>
</linearGradient>
<linearGradient id="paint23_linear" x1="952.657" y1="858.018" x2="811.27" y2="899.619" gradientUnits="userSpaceOnUse">
<stop stop-color="#27613E"/>
<stop offset="1" stop-color="#1B213F"/>
</linearGradient>
<linearGradient id="paint24_linear" x1="939.369" y1="746.545" x2="925.712" y2="914.548" gradientUnits="userSpaceOnUse">
<stop stop-color="#225321"/>
<stop offset="0.558371" stop-color="#E46C14" stop-opacity="0.990923"/>
<stop offset="1" stop-color="#FFC700"/>
</linearGradient>
<linearGradient id="paint25_linear" x1="939.369" y1="746.545" x2="925.712" y2="914.548" gradientUnits="userSpaceOnUse">
<stop stop-color="#225321"/>
<stop offset="0.558371" stop-color="#E46C14" stop-opacity="0.990923"/>
<stop offset="1" stop-color="#FFC700"/>
</linearGradient>
<linearGradient id="paint26_linear" x1="939.369" y1="746.545" x2="925.712" y2="914.548" gradientUnits="userSpaceOnUse">
<stop stop-color="#225321"/>
<stop offset="0.558371" stop-color="#E46C14" stop-opacity="0.990923"/>
<stop offset="1" stop-color="#FFC700"/>
</linearGradient>
</defs>
</svg>
