<svg width="74" height="101" viewBox="0 0 74 101" fill="none" xmlns="http://www.w3.org/2000/svg">
<rect x="20" y="1" width="34" height="54" rx="17" stroke="#F8D3EB" stroke-width="2"/>
<path d="M37 12L37 20" stroke="#FF5B79" stroke-width="2" stroke-linecap="round"/>
<path d="M15.8905 78.53C15.8905 75.176 11.0025 76.632 11.0025 74.292C11.0025 73.317 11.7695 72.81 12.7445 72.836C13.8495 72.849 14.4215 73.538 14.4995 74.149H15.7995C15.6565 72.771 14.5255 71.822 12.7965 71.822C11.0025 71.822 9.79349 72.836 9.79349 74.331C9.79349 77.698 14.6945 76.138 14.6945 78.582C14.6945 79.44 14.0185 80.09 12.8745 80.09C11.6135 80.09 11.0805 79.336 11.0025 78.582H9.74149C9.76749 80.077 11.0545 81.091 12.8745 81.091C14.8375 81.091 15.8905 79.817 15.8905 78.53ZM17.1894 77.425C17.1894 79.687 18.6324 81.117 20.6604 81.117C22.4284 81.117 23.5854 80.129 23.9494 78.712H22.6754C22.4154 79.609 21.7134 80.116 20.6604 80.116C19.3604 80.116 18.3984 79.193 18.3984 77.425C18.3984 75.683 19.3604 74.76 20.6604 74.76C21.7134 74.76 22.4284 75.306 22.6754 76.164H23.9494C23.5854 74.669 22.4284 73.759 20.6604 73.759C18.6324 73.759 17.1894 75.189 17.1894 77.425ZM26.7109 77.126C26.7109 75.475 27.5689 74.968 28.6999 74.968H29.0119V73.746C27.8809 73.746 27.1139 74.24 26.7109 75.033V73.876H25.5279V81H26.7109V77.126ZM37.1375 77.425C37.1375 75.176 35.5645 73.759 33.5365 73.759C31.5215 73.759 29.9355 75.176 29.9355 77.425C29.9355 79.687 31.4695 81.117 33.4845 81.117C35.5125 81.117 37.1375 79.687 37.1375 77.425ZM31.1445 77.425C31.1445 75.631 32.2755 74.786 33.5235 74.786C34.7455 74.786 35.9285 75.631 35.9285 77.425C35.9285 79.232 34.7195 80.077 33.4845 80.077C32.2495 80.077 31.1445 79.232 31.1445 77.425ZM38.6929 81H39.8759V71.38H38.6929V81ZM41.8921 81H43.0751V71.38H41.8921V81ZM48.7782 81H49.9612V74.851H51.4562V73.876H49.9612V73.369C49.9612 72.446 50.3122 72.056 51.3782 72.056V71.068C49.5582 71.068 48.7782 71.783 48.7782 73.369V73.876H47.8552V74.851H48.7782V81ZM59.5955 77.425C59.5955 75.176 58.0225 73.759 55.9945 73.759C53.9795 73.759 52.3935 75.176 52.3935 77.425C52.3935 79.687 53.9275 81.117 55.9425 81.117C57.9705 81.117 59.5955 79.687 59.5955 77.425ZM53.6025 77.425C53.6025 75.631 54.7335 74.786 55.9815 74.786C57.2035 74.786 58.3865 75.631 58.3865 77.425C58.3865 79.232 57.1775 80.077 55.9425 80.077C54.7075 80.077 53.6025 79.232 53.6025 77.425ZM62.3339 77.126C62.3339 75.475 63.1919 74.968 64.3229 74.968H64.6349V73.746C63.5039 73.746 62.7369 74.24 62.3339 75.033V73.876H61.1509V81H62.3339V77.126ZM9.34291 97H10.5129V92.801C10.5129 90.76 9.25191 89.746 7.60091 89.746C6.63891 89.746 5.78091 90.149 5.31291 90.89V89.876H4.12991V97H5.31291V93.061C5.31291 91.527 6.14491 90.773 7.35391 90.773C8.54991 90.773 9.34291 91.514 9.34291 92.97V97ZM15.4743 90.76C16.6963 90.76 17.7363 91.527 17.7233 92.918H13.2253C13.3553 91.527 14.3173 90.76 15.4743 90.76ZM18.8023 94.803H17.5283C17.2683 95.57 16.5923 96.116 15.5263 96.116C14.3173 96.116 13.3033 95.323 13.2123 93.88H18.9063C18.9323 93.633 18.9453 93.425 18.9453 93.165C18.9453 91.215 17.5933 89.759 15.5263 89.759C13.4463 89.759 12.0033 91.176 12.0033 93.425C12.0033 95.687 13.4983 97.117 15.5263 97.117C17.2943 97.117 18.4383 96.103 18.8023 94.803ZM24.2249 97H25.5639L23.2629 93.399L25.5509 89.876H24.3159L22.7039 92.515L21.0139 89.876H19.6749L21.9759 93.464L19.6749 97H20.9099L22.5349 94.348L24.2249 97ZM26.9876 95.05C26.9876 96.48 27.7026 97 28.9636 97H30.0296V95.999H29.1586C28.4306 95.999 28.1706 95.752 28.1706 95.05V90.851H30.0296V89.876H28.1706V88.082H26.9876V89.876H26.0646V90.851H26.9876V95.05ZM34.4867 93.412C34.4867 95.622 35.9557 97.117 37.8667 97.117C39.1667 97.117 40.0897 96.428 40.5187 95.661V97.156C40.5187 98.677 39.5697 99.483 38.3087 99.483C37.1387 99.483 36.2937 98.898 36.0337 98.04H34.8637C35.0977 99.561 36.4367 100.51 38.3087 100.51C40.4017 100.51 41.7147 99.119 41.7147 97.156V89.876H40.5187V91.176C40.1027 90.409 39.1667 89.759 37.8667 89.759C35.9557 89.759 34.4867 91.189 34.4867 93.412ZM40.5187 93.425C40.5187 95.102 39.4007 96.077 38.1007 96.077C36.8007 96.077 35.6957 95.089 35.6957 93.412C35.6957 91.735 36.8007 90.786 38.1007 90.786C39.4007 90.786 40.5187 91.774 40.5187 93.425ZM43.7139 97H44.8969V93.061C44.8969 91.527 45.7289 90.773 46.9379 90.773C48.1339 90.773 48.9269 91.514 48.9269 92.97V97H50.0969V92.801C50.0969 90.76 48.8359 89.746 47.2499 89.746C46.2489 89.746 45.3649 90.149 44.8969 90.903V87.38H43.7139V97ZM58.7893 93.425C58.7893 91.176 57.2163 89.759 55.1883 89.759C53.1733 89.759 51.5873 91.176 51.5873 93.425C51.5873 95.687 53.1213 97.117 55.1363 97.117C57.1643 97.117 58.7893 95.687 58.7893 93.425ZM52.7963 93.425C52.7963 91.631 53.9273 90.786 55.1753 90.786C56.3973 90.786 57.5803 91.631 57.5803 93.425C57.5803 95.232 56.3713 96.077 55.1363 96.077C53.9013 96.077 52.7963 95.232 52.7963 93.425ZM65.4668 95.063C65.4148 92.515 61.2808 93.438 61.2808 91.748C61.2808 91.176 61.8008 90.76 62.6718 90.76C63.6208 90.76 64.1668 91.28 64.2188 91.995H65.4018C65.3238 90.604 64.2838 89.759 62.7108 89.759C61.1248 89.759 60.0978 90.656 60.0978 91.748C60.0978 94.4 64.3098 93.477 64.3098 95.063C64.3098 95.648 63.7898 96.116 62.8538 96.116C61.8528 96.116 61.2418 95.596 61.1768 94.907H59.9548C60.0328 96.207 61.2028 97.117 62.8668 97.117C64.4398 97.117 65.4668 96.233 65.4668 95.063ZM67.3967 95.05C67.3967 96.48 68.1117 97 69.3727 97H70.4387V95.999H69.5677C68.8397 95.999 68.5797 95.752 68.5797 95.05V90.851H70.4387V89.876H68.5797V88.082H67.3967V89.876H66.4737V90.851H67.3967V95.05Z" fill="#F8D3EB"/>
</svg>
